# xmcd
#
# Track frame offsets:
#	150
#	15177
#	33701
#	46463
#	61222
#	82136
#	95087
#	111226
#	131157
#	146839
#	161524
#	178104
#
# Disc length: 2657 seconds
#
# Revision: 3
# Processed by: cddbd v1.5.2PL0 Copyright (c) Steve Scherf et al.
# Submitted via: EasyCDDAExtractor 16.0.6.1
#
DISCID=aa0a5f0c
DTITLE=Osborne, Joan - Bring It On Home
DYEAR=2012
DGENRE=Blues
TTITLE0=I Don't Need No Doctor
TTITLE1=Bring It On Home
TTITLE2=Roll Like A Big Wheel
TTITLE3=Game Of Love
TTITLE4=Broken Wings
TTITLE5=Shoorah! Shoorah!
TTITLE6=I Want To Be Loved
TTITLE7=Same Love That Made Me Laugh
TTITLE8=Shake Your Hips
TTITLE9=I'm Qualified
TTITLE10=Champagne And Wine
TTITLE11=Rhymes
EXTD=PRODUCED by JOAN OSBORNE and JACK PETRUZZELLI. Recorded by Henry Hirsch a
EXTD=t Waterfront Studios, Hudson, NY. Assistant Engineer: Rachel Alina. Addit
EXTD=ional Recording: Brian Thorn at One East Recording, New York, NY. Richard
EXTD=Lamb assisted by Casey Savage at Lake House Studios, Albrightsville, PA,
EXTD=and at Mark Dan Recording, New York, NY. Mixed by Brian McTear and Johat
EXTD=han Low at Miner Street Recordings, Philadelphia, PA. Shake Your Hips mix
EXTD=ed by Henry Hirsch, assisted by Rachel Alina at Waterfront Studios. Analo
EXTD=g-to-digital transfers by Chris Theis. Mastered by Fred Kevorkian at Avat
EXTD=ar Studios, New York, NY. Executive Producer, Saguaro Road Records: Mike 
EXTD=Jason. A&R: Bas Hartong. Project Manager: Meghan Ryan. SAGUARO ROAD 26683
EXTD=D.
EXTT0=
EXTT1=
EXTT2=
EXTT3=
EXTT4=
EXTT5=
EXTT6=
EXTT7=
EXTT8=
EXTT9=
EXTT10=
EXTT11=
PLAYORDER=
